# xmcd
#
# Track frame offsets:
#	183
#	12745
#	22120
#	34508
#	44320
#	53370
#	66620
#	82533
#	94258
#	107108
#	116808
#	128133
#	141608
#	154195
#	166870
#	177808
#
# Disc length: 2516
#
# Revision: 1
# Processed by: cddbd v1.5.1PL0 Copyright (c) Steve Scherf et al.
# Submitted via: dBpowerAMP V4.0
# Normalized: r0:DSETVAR1,TDELIM( - )
#
DISCID=d609d210
DTITLE=Various Artist - It's country time cd 2
DYEAR=1900
DGENRE=Country
TTITLE0=Frankie Laine - High noon
TTITLE1=George Jones - Worlds wprst loser
TTITLE2=Don Williams - Coming apart
TTITLE3=Donna Fargo - Sticks and stones
TTITLE4=Jphnny Cash - Remember me
TTITLE5=Faron Young - It's four on the morning
TTITLE6=Billie Jo Spears - Blanket on the ground
TTITLE7=Patsy Cline - Never no more
TTITLE8=Freddy Fender - Silver wings
TTITLE9=Billie Jo Spears - Donny
TTITLE10=Jim Reeves - Caroline Moon
TTITLE11=Lefty Frizzel - Saginaw Michigan
TTITLE12=Johnny Paychech - Georgia in a jug
TTITLE13=Jphnny Horton - North to Alaska
TTITLE14=Porter Wagoner - Enough to make a grown man cry
TTITLE15=Roy Drusky - I can't help it lf l'm still in love with you
EXTD=
EXTT0=
EXTT1=
EXTT2=
EXTT3=
EXTT4=
EXTT5=
EXTT6=
EXTT7=
EXTT8=
EXTT9=
EXTT10=
EXTT11=
EXTT12=
EXTT13=
EXTT14=
EXTT15=
PLAYORDER=
